<?xml version="1.0" encoding="UTF-8" standalone="no"?>
<!-- Created with Inkscape (http://www.inkscape.org/) -->

<svg
   version="1.1"
   id="svg1"
   width="1365.3333"
   height="1365.3333"
   viewBox="0 0 1365.3333 1365.3333"
   sodipodi:docname="jac2.svg"
   inkscape:version="1.4 (e7c3feb1, 2024-10-09)"
   inkscape:export-filename="jac2.jpg"
   inkscape:export-xdpi="96"
   inkscape:export-ydpi="96"
   xmlns:inkscape="http://www.inkscape.org/namespaces/inkscape"
   xmlns:sodipodi="http://sodipodi.sourceforge.net/DTD/sodipodi-0.dtd"
   xmlns="http://www.w3.org/2000/svg"
   xmlns:svg="http://www.w3.org/2000/svg">
  <defs
     id="defs1" />
  <sodipodi:namedview
     id="namedview1"
     pagecolor="#ffffff"
     bordercolor="#000000"
     borderopacity="0.25"
     inkscape:showpageshadow="2"
     inkscape:pageopacity="0.0"
     inkscape:pagecheckerboard="0"
     inkscape:deskcolor="#d1d1d1"
     inkscape:zoom="0.38951345"
     inkscape:cx="689.3215"
     inkscape:cy="387.66312"
     inkscape:window-width="1512"
     inkscape:window-height="945"
     inkscape:window-x="0"
     inkscape:window-y="37"
     inkscape:window-maximized="0"
     inkscape:current-layer="g1" />
  <g
     inkscape:groupmode="layer"
     inkscape:label="Image"
     id="g1">
    <path
       style="fill:#78c2ac;fill-opacity:1;stroke-width:1.08"
       d="m 405.92959,169.99426 c -16.77739,1.00205 -25.86917,17.64953 -33.65291,30.39394 -33.36167,60.12397 -58.18541,125.43187 -70.18302,193.24798 -8.94847,47.81067 -5.30367,99.18597 17.79977,142.66655 7.99368,14.54329 17.38266,28.81237 29.53453,40.17378 8.59954,6.22697 19.79101,0.10818 24.01098,-8.42061 11.67935,-19.0758 22.2612,-38.92757 32.56822,-58.707 2.50214,-9.47205 -5.35434,-17.82632 -7.78755,-26.72811 -1.06981,-3.12091 -4.49097,-8.37253 1.39031,-6.79506 9.69237,-0.86174 19.40983,2.63821 28.95323,1.0357 8.49203,-2.56498 8.97113,-13.14226 4.55656,-19.4889 -8.63225,-19.7835 -18.98664,-38.65153 -27.0045,-58.6148 11.91221,5.99024 18.76821,19.42823 31.68699,23.48152 8.14773,2.63258 17.45101,-3.9683 15.93631,-12.87349 -5.73881,-45.39563 -15.9519,-90.17331 -29.75692,-133.79112 23.41893,49.84306 31.76744,105.14359 39.45791,159.2428 1.26063,12.79403 3.52071,25.99187 3.01429,38.67111 -26.08414,18.16671 -47.64198,42.21992 -64.05052,69.3732 -22.18501,34.03923 -34.379,73.04999 -49.98032,110.22784 -18.21281,43.2607 -53.76813,76.92997 -93.95953,100.0025 -8.33129,4.10987 -14.86953,14.9307 -8.42061,23.41613 16.47585,19.10558 39.73178,30.38305 60.97771,43.26322 -11.44882,6.22682 -24.99227,9.09628 -35.00291,17.67864 -6.98375,7.87914 -2.42174,19.75691 5.69173,24.86889 28.31158,22.94282 60.89272,39.80441 91.4373,59.48832 37.47242,23.00502 76.53128,47.17364 100.9937,84.86711 21.13725,32.1674 30.882,69.4686 46.80162,104.3561 13.26352,32.5714 37.07249,61.6939 69.42898,76.6196 19.94076,9.5402 41.86926,14.8711 63.55933,17.5442 28.265,-0.092 57.19855,0.036 84.19046,-9.5658 39.6628,-12.0396 75.07032,-40.5822 91.56687,-79.0706 18.7017,-39.6492 28.64037,-84.5816 58.6273,-117.99912 31.13788,-37.33879 74.60923,-60.61197 115.0668,-86.16905 24.6441,-15.89708 50.6894,-30.39964 72.0751,-50.69031 7.1887,-6.67246 4.894,-19.48088 -4.4845,-22.80442 -12.5985,-6.37529 -25.6183,-11.87402 -38.361,-17.95075 23.4091,-12.4447 47.1374,-25.31583 66.8966,-43.19361 6.624,-5.34674 6.628,-16.28511 -1.04,-20.70348 -19.7232,-13.9938 -40.3638,-27.13543 -56.9108,-45.04142 -22.1015,-22.12038 -37.6918,-50.12447 -48.46507,-79.0509 -17.43883,-45.92506 -37.18091,-93.16383 -70.957,-129.95196 -11.74062,-12.51719 -24.91198,-23.64982 -38.94956,-33.50527 3.98792,-60.49152 17.71571,-119.82841 40.68135,-176.11776 2.63786,-6.43739 -1.86799,6.64157 -2.54312,9.54584 -10.13715,35.30997 -18.23831,71.24193 -24.64246,107.39773 -0.73802,12.53856 16.98755,16.02702 24.30629,7.76037 5.64023,-6.96554 12.55901,-12.7985 20.19723,-17.48879 -7.10969,19.71389 -19.23766,37.26599 -25.97058,57.08803 -2.25972,8.70691 5.52855,16.62279 14.30295,14.55916 7.32177,-0.11922 14.64284,-0.29759 21.96559,-0.34621 -3.29306,11.05832 -11.26162,21.03183 -11.45389,32.78596 6.61292,17.60965 17.75512,33.19719 26.1513,50.0061 5.74223,8.98561 9.65483,23.70574 22.42964,24.26065 11.34288,-1.02703 17.49423,-12.52029 24.61633,-20.02215 19.8901,-25.26171 33.9062,-55.54109 37.0372,-87.7597 6.8675,-60.42127 -6.9328,-120.88678 -23.8841,-178.54276 -11.605,-36.0844 -24.5563,-72.18755 -43.8487,-104.95753 -6.187,-10.81941 -17.97518,-19.86499 -31.04145,-17.1808 -15.04787,2.81468 -23.69493,17.27429 -32.85347,28.12636 -36.42977,50.029 -65.65886,104.99701 -91.20059,161.25887 -12.00999,25.74228 -20.04952,53.05254 -30.54812,79.37614 -41.63884,-9.99256 -84.63168,-14.86913 -127.45372,-14.10808 -40.35179,0.93838 -80.18075,8.0499 -119.65074,15.93479 -19.10767,-55.96389 -39.77489,-111.99512 -66.50361,-165.02146 -16.13002,-31.66845 -32.71386,-63.33525 -53.0619,-92.5286 -5.6791,-7.81252 -14.25914,-13.94805 -24.28731,-13.52951 z m 406.03928,332.75971 c 22.15525,-0.69152 43.1441,10.7997 56.89186,27.75722 -22.53685,-17.34921 -52.02508,-21.05069 -79.28916,-22.46481 -6.52434,-0.17958 5.37065,-3.8345 7.72227,-4.02474 4.83066,-0.92975 9.7598,-1.29059 14.67503,-1.26767 z m -265.05731,3.0607 c 6.7823,0.22128 13.54319,1.65925 19.80489,4.27992 -26.65369,2.06639 -54.855,4.9643 -77.42028,20.68449 9.17385,-10.86111 21.48402,-18.60273 35.27925,-22.06824 7.25629,-2.00839 14.79775,-3.11448 22.33614,-2.89617 z m 279.97268,87.40392 c 18.93701,-0.83972 36.18333,9.4115 48.21462,23.38485 13.27643,14.41846 21.27097,33.27321 24.90042,52.3437 0.24132,16.87604 1.40112,34.07438 -0.72985,50.97508 -6.80164,27.56653 -22.82284,55.46514 -50.19677,66.65198 -16.2908,6.5221 -35.11084,7.83947 -51.18782,-0.14275 -23.66024,-10.02415 -42.21293,-30.63946 -49.42071,-55.31901 -10.68384,-34.42156 -5.80879,-74.01342 14.30998,-104.09327 12.92789,-18.31119 32.8404,-32.96585 55.95892,-33.6069 2.7118,-0.19738 5.43332,-0.23677 8.15121,-0.19368 z m -291.17134,0.56742 c 14.13007,-1.0966 28.47478,2.36549 39.87345,10.9603 28.67494,20.34993 42.80416,56.84265 40.77271,91.3421 0.76487,23.60226 -7.98868,47.73766 -22.34313,66.64773 -17.62163,23.07609 -49.01044,35.09033 -77.40205,28.54147 -22.54427,-6.11119 -41.83854,-22.76478 -50.52404,-44.54307 -5.1015,-12.00143 -11.417,-24.38194 -9.49061,-37.77886 0.82623,-20.75138 -1.48094,-42.82056 8.61532,-61.8616 10.13272,-24.69802 30.13294,-48.32893 57.64173,-52.97901 4.27465,-0.35712 8.57163,-0.28284 12.85662,-0.32906 z m 144.73454,214.56107 c 22.29178,-0.36876 46.0794,5.60772 62.40154,21.50083 9.23111,9.02056 8.41838,25.14056 0.20672,34.58947 -12.56363,15.76403 -32.82181,22.09598 -51.23086,28.01246 -9.33604,4.99389 -6.60654,17.50096 -7.90749,26.43676 0.62114,9.15227 -4.15117,21.72949 5.45918,27.29407 33.65781,6.97078 63.07986,32.46364 73.56754,65.38003 8.62611,26.7313 12.89151,55.99 6.51041,83.6736 -3.47622,16.37 -19.58494,27.3763 -35.9458,26.9177 -38.67446,0.8568 -78.67354,1.1661 -117.78591,0 -14.2528,-1.1297 -23.88891,-14.4836 -25.59019,-27.8728 -4.1655,-27.9535 -2.56762,-57.3901 7.37068,-84.0144 12.37652,-32.44285 42.17467,-56.92372 75.90732,-64.32925 10.34378,-4.32356 6.90666,-17.30372 8.24764,-26.133 -0.34942,-8.96383 4.32708,-22.20249 -6.48259,-26.58653 -18.256,-5.86818 -38.06238,-10.34674 -52.2246,-24.29607 -6.4347,-5.9746 -11.86702,-14.14555 -10.30362,-23.32929 -1.3364,-16.37574 14.93747,-26.47089 28.48813,-31.2024 12.48424,-4.77507 26.05234,-5.90681 39.3119,-6.03648 z"
       id="path7" />
    <path
       style="fill:none;stroke-width:1.08"
       d="m 405.80092,179.00761 c -12.12893,1.63121 -18.19403,14.30283 -24.29152,23.43301 -32.41083,57.44027 -56.42197,119.9178 -69.12123,184.69946 -8.58276,42.2825 -8.73449,87.41284 7.64992,127.90942 7.85658,19.90583 19.46921,38.49494 34.31737,53.89444 6.51924,4.02048 10.95086,-4.82951 13.76997,-9.30443 10.34408,-17.87392 20.60431,-36.05913 29.78011,-54.41757 -3.85984,-11.30687 -11.3413,-22.02746 -11.67959,-34.23511 2.12393,-6.32141 10.60996,-3.39569 15.71905,-4.14913 8.04558,-0.43736 16.1101,1.70277 24.04683,1.37742 2.99533,-2.88137 -2.08971,-7.18494 -2.53792,-10.38448 -8.51884,-19.9679 -19.86303,-38.77528 -26.73384,-59.37244 -1.49812,-5.04905 2.97188,-13.09487 8.81929,-9.8128 13.3835,4.64165 21.34717,17.46458 33.08971,24.50668 3.09245,1.54031 7.45924,0.2045 6.08132,-3.93187 -6.17588,-48.37294 -17.89121,-95.84267 -32.71452,-142.25318 -1.09502,-6.81341 -6.0898,-15.66725 -0.9616,-21.82218 10.11731,3.24492 14.33392,14.68663 19.35224,23.0915 25.53949,52.24647 34.24949,110.556 42.24213,167.57102 1.17313,13.28172 3.71393,26.6733 2.76467,39.95719 -3.68198,7.77594 -13.01945,10.76219 -18.8409,16.77161 -35.73538,29.96939 -58.99754,71.98082 -76.2443,114.6708 -13.20606,33.63657 -24.53815,69.2572 -48.72543,96.94769 -19.13947,23.78572 -43.94827,42.131 -70.00161,57.70608 -4.05237,1.94951 -7.36686,7.41664 -3.03328,10.97085 19.03735,19.79056 44.88094,30.56126 67.22779,45.80289 2.91456,2.87409 -3.37351,5.04361 -5.13421,6.38507 -12.18272,6.88741 -26.17086,10.52449 -37.80838,18.30725 -4.4023,6.16628 3.8138,11.37973 7.87639,14.8099 31.6297,23.93358 66.8634,42.53653 100.09718,64.08443 37.337,22.68831 74.26207,49.58679 96.30427,88.24737 21.90413,37.5639 31.5917,80.8356 52.9748,118.6507 16.20796,28.7599 44.27845,49.7314 75.81715,58.9021 12.97796,3.5929 26.21833,7.1931 39.65618,8.2055 27.07437,-0.1819 54.78816,-0.067 80.60121,-9.4205 36.98192,-11.4061 70.02297,-38.0789 85.3726,-74.0558 18.53087,-39.5616 28.75408,-84.0882 57.98022,-117.72683 27.53297,-33.81182 64.93489,-57.06229 101.7388,-79.44602 29.39271,-19.01924 60.67091,-35.78445 86.90031,-59.21073 3.6054,-2.58756 3.4118,-8.33704 -1.3268,-9.48373 -17.0546,-8.76087 -35.3673,-15.6077 -51.9665,-24.89902 6.3507,-7.1262 16.5198,-9.59647 24.4145,-14.70338 18.6746,-10.77502 38.2999,-21.01586 53.8263,-36.20209 4.4797,-5.75199 -4.2106,-10.10711 -8.0831,-12.7849 -41.2715,-25.64845 -76.485,-62.73787 -94.68492,-108.29546 -13.34794,-33.20512 -25.4545,-67.12866 -43.7954,-98.03654 -17.20095,-31.4886 -42.65463,-57.87586 -72.34717,-77.81935 0.59454,-27.37975 5.20157,-54.49902 10.17682,-81.37621 9.80286,-45.37668 23.15631,-90.5686 44.94594,-131.69366 3.75743,-5.91593 8.86618,-15.59897 17.21181,-13.43867 -0.10177,12.82238 -6.76507,24.67537 -10.06859,36.91173 -13.45446,41.36376 -23.07455,83.94626 -30.7815,126.69957 2.05609,4.59236 9.26163,1.82446 11.05522,-1.89 8.45258,-9.34664 18.98768,-17.67295 31.03729,-21.65902 6.4814,-0.67081 4.75823,7.61202 3.41297,11.37373 -6.58843,21.1666 -19.70556,39.83545 -27.16027,60.67396 0.0112,7.25067 11.31364,1.80558 16.13635,3.3056 6.59327,0.54844 14.04115,-1.59881 20.16383,1.10721 3.54889,6.41953 -2.04817,13.46291 -3.92031,19.68314 -2.21446,6.61269 -7.10115,13.0159 -7.30156,20.03422 10.005,20.63429 21.81242,40.36301 32.82394,60.47569 1.63242,3.9706 6.76627,7.83447 10.50256,3.90444 19.76709,-18.95884 34.53169,-43.23382 43.05019,-69.22747 14.1578,-50.98288 6.5857,-104.91747 -4.799,-155.66038 -12.0011,-50.55399 -28.3616,-100.52408 -53.01017,-146.40595 -4.89174,-8.86377 -12.72017,-19.77134 -24.32556,-17.64902 -11.26042,2.03096 -17.58687,13.25063 -24.70919,21.07684 -34.04941,45.37743 -61.05311,95.65061 -85.48106,146.72369 -14.68811,29.94156 -25.33004,61.66259 -36.7296,92.85664 -1.67103,3.79765 -3.71862,10.59202 -9.22851,8.47967 -43.39672,-10.26563 -88.38043,-15.69139 -133.08025,-14.12014 -37.91449,1.34986 -75.31376,8.14576 -112.42318,15.56506 -5.78237,1.85541 -10.26123,0.14767 -10.65911,-6.5605 -19.96019,-58.75432 -41.83556,-117.07688 -70.3508,-172.3063 -14.85546,-28.27456 -29.70992,-56.7924 -48.26083,-82.85138 -3.95506,-5.24424 -9.72963,-9.62312 -16.61552,-9.16733 z M 811.9309,493.75328 c 25.23465,-0.80172 49.3345,12.56728 64.72841,32.03192 10.7916,13.39855 21.26547,27.45993 28.42356,43.19882 1.16694,2.8915 -1.76877,6.13222 -3.64078,2.42789 -21.01191,-19.71423 -42.0356,-42.79296 -71.4191,-49.17367 -18.09834,-4.94733 -37.22846,-3.40255 -55.3014,-7.42921 -5.89412,-1.95267 -0.76794,-8.65742 2.26758,-10.94552 9.38241,-8.50356 22.71826,-10.04504 34.94173,-10.11023 z m -266.24278,3.03328 c 12.61686,0.61541 27.24523,2.99285 35.76229,13.21099 2.56608,3.2828 0.77252,8.45455 -3.85805,7.93757 -28.48581,3.15625 -59.673,3.38781 -84.05261,20.83357 -14.45546,9.12572 -25.69926,22.41333 -39.75906,31.97033 -4.48604,2.15705 -2.34694,-5.04689 -0.97779,-6.64774 11.24112,-20.16602 26.84788,-38.04003 44.49624,-52.95044 14.27642,-9.2336 31.47907,-14.36144 48.38898,-14.35428 z m 279.20065,87.41236 c 19.49164,-0.89475 38.6343,7.19716 51.98547,21.34262 17.37726,16.3568 27.74741,39.02689 32.04666,62.16446 0.47863,17.63568 1.3544,35.45442 -0.61281,53.01145 -6.88186,29.53895 -23.76052,59.04555 -51.99601,72.53497 -18.02674,8.06761 -39.20793,11.00226 -57.84857,3.14081 -25.96484,-9.83475 -47.82412,-31.05752 -56.81054,-57.45503 -13.69745,-37.69288 -9.02685,-81.96809 12.83131,-115.77286 13.861,-20.23883 35.33435,-36.70639 60.54318,-38.47283 3.27612,-0.33172 6.56858,-0.49185 9.86131,-0.49359 z m -289.20539,0.58641 c 14.59644,-0.93732 29.33627,1.99597 41.60735,10.29162 32.91886,21.07372 50.03192,61.4862 48.07402,99.90405 1.02012,26.09499 -8.39528,52.19507 -23.98993,72.95505 -17.70231,23.52693 -47.59376,36.16562 -76.7508,33.95709 -28.76357,-3.55502 -55.00021,-23.34142 -66.16264,-50.22699 -4.54256,-10.50779 -9.81573,-21.35257 -11.05442,-32.71998 1.51985,-24.57404 -2.52826,-50.58735 8.65185,-73.36664 10.71063,-27.1954 31.93677,-52.54114 61.26881,-59.68678 5.94067,-1.3258 12.08303,-0.97941 18.35576,-1.10742 z m 146.93671,172.85034 c 12.21472,-0.39065 25.22802,0.0853 35.32354,7.95867 4.17507,3.32554 10.84122,5.48357 12.48537,10.94342 -1.83806,2.52131 -6.76214,-0.83333 -9.44332,-0.44985 -24.99244,-5.55941 -51.07547,-5.31116 -76.05162,0.15453 -1.69312,0.16609 -9.25269,1.57474 -6.56858,-2.30976 8.14046,-8.15069 19.33365,-13.16199 30.44878,-15.58404 4.53596,-0.65787 9.18977,-0.6734 13.80583,-0.71297 z m -2.24648,41.71072 c 24.14002,-0.48394 49.61065,6.31116 67.64193,22.88389 8.54962,7.31202 11.37126,18.76052 10.11584,29.56986 -2.62483,18.45511 -19.14915,31.29715 -35.16749,38.60291 -9.00125,4.88838 -19.2449,7.17855 -28.4364,10.95467 -1.86469,11.8072 -1.73584,23.79894 -2.17265,35.71165 6.92116,3.44812 15.69166,4.30339 22.78966,8.30461 28.82487,13.56184 51.00816,40.19584 58.79064,71.04902 7.35629,27.3133 11.14631,56.7544 3.24597,84.3146 -5.30371,18.1647 -23.49101,30.2556 -42.07638,30.3469 -39.90724,0.9838 -80.12041,1.2286 -119.98521,0.042 -16.56359,-1.1994 -30.02953,-15.4069 -33.00255,-31.4372 -5.09697,-24.7802 -3.71091,-50.9569 1.65375,-75.6737 9.12703,-42.06695 43.5934,-76.80162 85.59197,-86.20583 4.65686,-1.44913 1.7239,-8.36532 2.98265,-11.97701 -0.0383,-7.89509 1.67339,-16.28873 0.43875,-23.87809 -16.33823,-5.57511 -33.87172,-9.22653 -47.86164,-19.82388 -11.22732,-8.08571 -22.9781,-20.34548 -21.28356,-35.41635 -1.87437,-17.19795 11.90849,-31.26679 26.59752,-37.51144 15.59798,-7.62138 33.03171,-9.8064 50.1372,-9.85661 z"
       id="path4" />
    <path
       style="fill:#f481aa;fill-opacity:1;stroke-width:1.08"
       d="m 535.72134,602.17077 c -20.22308,-0.0109 -39.12786,11.17245 -50.51604,27.59471 -14.03968,18.58434 -21.35207,41.94548 -20.05088,65.23662 -0.84369,22.60869 5.25054,45.95341 18.98013,64.12279 11.85629,14.94203 30.05251,25.80854 49.6082,24.72184 29.86543,0.56246 55.4776,-21.74951 66.82489,-48.11899 10.17673,-20.68635 9.98765,-44.65476 6.53062,-66.93458 -6.72102,-27.03092 -24.15763,-53.95659 -51.35054,-63.66294 -6.44104,-2.12734 -13.2487,-3.09483 -20.02638,-2.95945 z m 12.46428,59.16787 c 10.48734,-1.63628 16.26523,9.54607 18.81348,17.77779 5.05495,17.00463 2.95016,36.97675 -7.48194,51.57624 -6.82687,7.99221 -21.8641,5.77002 -26.24902,-3.87281 -8.17954,-15.30141 -7.69162,-34.11973 -3.04171,-50.44773 2.49066,-7.92482 8.54724,-16.48665 17.95919,-15.03349 z"
       id="path5" />
    <path
       style="fill:#f481aa;fill-opacity:1;stroke-width:1.08"
       d="m 822.19933,601.96194 c -27.25167,-0.0603 -49.88265,20.7799 -61.00514,44.2504 -6.18992,12.98644 -11.2409,26.96771 -9.93403,41.59892 -0.2331,16.96819 -0.69836,34.89246 8.14899,50.09285 9.57883,20.29145 26.70255,38.67019 49.07504,44.07372 9.76615,0.61822 19.93423,1.17525 29.49657,-0.36852 13.18105,-5.70654 25.84935,-13.24172 34.61145,-24.91231 17.61499,-21.1568 23.19505,-49.82336 20.56638,-76.71362 -2.59571,-31.67336 -21.52554,-64.45558 -52.68367,-75.20754 -5.88118,-1.93837 -12.08122,-2.91914 -18.27559,-2.8139 z m -9.71577,58.9717 c 12.50325,0.0241 18.72955,12.8657 19.93356,23.57645 1.94681,15.27584 1.27782,32.83053 -8.34467,45.72907 -4.86088,5.01382 -13.32412,4.98788 -19.56442,3.21257 -11.72075,-7.75605 -12.24917,-23.80873 -12.45795,-36.39932 0.68918,-11.92549 1.95627,-25.63543 11.65849,-33.81533 2.60453,-1.63513 5.71277,-2.38703 8.77499,-2.30344 z"
       id="path6" />
    <path
       style="fill:#a8523c;fill-opacity:1;stroke-width:1.08"
       d="m 672.37909,1049.5959 c -18.46171,-0.4932 -37.49515,2.4614 -53.19624,12.7744 -9.49674,5.1763 -16.48837,14.5865 -16.73154,25.6499 -3.00821,13.8497 8.55153,28.1301 22.69262,28.2762 34.1238,2.1852 68.397,0.9582 102.55937,0.2419 12.87689,0.7913 26.45697,-7.337 28.30394,-20.8168 2.97881,-14.0478 -6.43619,-27.3031 -18.83585,-33.0415 -17.42785,-10.0536 -37.67701,-13.8025 -57.63308,-13.0976 -2.3865,-0.025 -4.77276,-0.01 -7.15922,0.014 z"
       id="path8" />
    <path
       style="fill:#000000"
       d="m 651.48827,1224.454 c -63.52458,-7.039 -106.7877,-34.0721 -134.29889,-83.9172 -7.25931,-13.1525 -13.14983,-27.0021 -25.23475,-59.3314 -18.43895,-49.3275 -27.91907,-65.7341 -51.67084,-89.42319 -18.94446,-18.89448 -30.79005,-27.53733 -74.12883,-54.08634 -43.43907,-26.61044 -66.48764,-41.53631 -79.80732,-51.6819 -15.94074,-12.14204 -35.65603,-30.21224 -41.70745,-38.22729 -5.26907,-6.97884 -5.41247,-7.41674 -3.22141,-9.83784 1.26122,-1.39363 7.19282,-4.49707 13.18132,-6.89653 5.98851,-2.39947 15.02121,-6.22985 20.07267,-8.51197 l 9.18448,-4.14932 -13.14883,-7.92616 c -7.23185,-4.35939 -17.66487,-11.29643 -23.18448,-15.41564 -18.91232,-14.11404 -34.73797,-31.68647 -32.88513,-36.51488 0.43697,-1.13873 7.63002,-5.28225 15.98455,-9.20781 27.25762,-12.80761 42.44484,-22.84349 60.71503,-40.12116 17.13039,-16.19978 32.07369,-36.79065 41.45087,-57.11654 4.53124,-9.82185 16.03236,-42.86828 16.03236,-46.06611 0,-0.71293 -5.85,-7.22912 -13,-14.48044 -7.14999,-7.25132 -16.07337,-17.64357 -19.82972,-23.09389 -30.44104,-44.16877 -42.28253,-104.05075 -33.07185,-167.243 8.04839,-55.21802 27.89247,-115.60173 58.22791,-177.1822 21.4712,-43.5862 32.11536,-58.87627 46.55452,-66.87437 6.49174,-3.59589 8.24007,-3.94342 19.83835,-3.94342 12.16637,0 13.05717,0.20284 20.49439,4.66667 13.71106,8.22939 25.39007,25.02366 58.10265,83.55085 27.64406,49.45895 56.06495,110.46884 73.36232,157.48371 5.5655,15.12724 7.44629,18.90564 9.16224,18.40647 1.18755,-0.34545 9.95918,-2.19219 19.49251,-4.10385 60.46715,-12.12512 106.00732,-13.00119 163.33333,-3.1421 12.83333,2.20711 24.15029,4.11612 25.14881,4.24225 2.39433,0.30244 2.91116,-0.71901 11.01538,-21.77068 17.33237,-45.02287 42.62979,-97.23118 65.5331,-135.24592 25.58081,-42.45882 53.74701,-82.17215 65.28272,-92.04629 3.08304,-2.63897 8.92378,-6.4278 12.97942,-8.41962 6.61871,-3.2506 8.80766,-3.61835 21.37389,-3.5909 16.34776,0.0357 22.67692,2.23688 32.51995,11.30987 18.07376,16.65984 46.04036,77.43483 63.24986,137.45046 18.4896,64.47934 26.1755,124.41179 21.4929,167.59495 -3.6301,33.47628 -15.9438,68.24532 -33.74,95.26868 -7.316,11.10919 -24.2446,29.69082 -31.9418,35.06084 l -3.7525,2.61792 5.3466,15.44209 c 2.9407,8.49314 7.8307,21.09314 10.8669,27.99999 20.4433,46.50657 53.4145,79.53132 103.0731,103.24046 20.7774,9.92003 21.0875,10.38489 13.6698,20.48981 -11.1709,15.21785 -37.8749,35.97506 -61.7848,48.0258 -3.1167,1.57082 -5.6667,3.08759 -5.6667,3.3706 0,0.28301 6.75,3.35328 15,6.82282 25.4303,10.69472 31.6667,13.93346 31.6667,16.44547 0,3.18845 -12.5379,18.08735 -22.0932,26.25369 -24.0005,20.51164 -45.773,35.66248 -90.5735,63.02739 -45.43918,27.75507 -60.57885,38.81987 -81.47715,59.54745 -26.39352,26.17792 -37.65386,44.84042 -55.10811,91.33442 -15.35212,40.8944 -22.06207,54.9851 -34.41726,72.2753 -30.17605,42.2292 -82.15767,66.278 -147.66411,68.3153 -10.26667,0.3193 -23.76666,0.015 -30,-0.6753 z m 61.46995,-31.7824 c 46.31793,-9.3197 80.81514,-31.6065 100.61126,-64.9994 6.43983,-10.863 16.26558,-33.0797 23.20444,-52.4668 16.04585,-44.8321 31.13784,-70.5692 56.2158,-95.86743 21.0467,-21.23159 40.96097,-35.60156 92.49853,-66.74619 16.13335,-9.74952 37.73335,-23.32234 47.99995,-30.16183 19.3518,-12.89185 40,-29.20042 40,-31.59322 0,-0.75571 -12.3352,-6.83193 -27.4115,-13.5027 -15.0763,-6.67077 -28.548,-12.8206 -29.937,-13.6663 -3.591,-2.18638 -1.2512,-4.5375 9.7208,-9.7675 23.9607,-11.42137 53.0614,-29.69673 65.6277,-41.21451 7.0328,-6.44598 7.9579,-5.07614 -11.618,-17.20335 -29.7761,-18.44612 -59.4543,-48.65303 -76.5916,-77.9561 -7.227,-12.35743 -16.68659,-33.7467 -23.48721,-53.10737 -13.08535,-37.25266 -35.01061,-79.19233 -53.94825,-103.19475 -12.08966,-15.32298 -28.47737,-30.78406 -42.2377,-39.84941 -5.2754,-3.47545 -9.90766,-7.14255 -10.29391,-8.14911 -0.88675,-2.31083 2.55886,-32.52253 6.79424,-59.5732 7.65691,-48.90332 25.36655,-106.58107 44.30088,-144.28159 7.42404,-14.78214 11.32591,-20.0575 16.38544,-22.15322 8.35475,-3.46065 8.74799,2.15399 1.50396,21.47363 -12.42156,33.12803 -24.42502,79.37426 -34.82221,134.16107 -4.02287,21.198 -3.49411,22.50717 4.68108,11.58996 12.86321,-17.17761 36.17008,-32.10051 40.12948,-25.69406 3.16513,5.12129 -2.01793,18.57695 -21.14285,54.88857 -4.95736,9.4123 -8.67161,17.66628 -8.25389,18.34216 0.44535,0.7206 7.87621,0.86869 17.96556,0.35805 19.30727,-0.97717 21.3017,-0.33896 21.3017,6.81652 0,2.48737 -2.89687,10.11807 -6.89796,18.17007 -3.79389,7.63499 -6.73767,14.78179 -6.54176,15.88179 0.19592,1.1 3.20064,6.8 6.67716,12.66667 3.47652,5.86667 11.31699,20.03275 17.42328,31.48018 15.55685,29.16438 13.07347,27.35038 23.45273,17.13117 13.17473,-12.97154 27.69863,-35.52972 35.31273,-54.84687 16.1629,-41.00575 14.9104,-102.23556 -3.609,-176.43114 -12.0571,-48.30499 -26.8124,-89.41401 -45.43191,-126.57487 -10.80597,-21.56663 -16.44234,-27.4001 -26.49001,-27.41633 -8.5185,-0.0138 -15.85317,5.80386 -28.1158,22.30056 -19.06251,25.64446 -32.63366,47.16346 -53.20066,84.35731 -28.67039,51.84818 -49.0501,97.56906 -63.48792,142.43197 -5.63897,17.52208 -8.76492,22.36417 -13.54747,20.98498 -33.81163,-9.75056 -93.90987,-16.58282 -130.87673,-14.8787 -34.83656,1.60591 -76.11358,7.24314 -107.87364,14.73236 -8.8675,2.09102 -13.98485,2.73343 -15.00825,1.88409 -0.85408,-0.70883 -4.98586,-11.60861 -9.18173,-24.22174 -20.45216,-61.48094 -43.37862,-116.36555 -67.69631,-162.06108 -28.00888,-52.63166 -44.36605,-79.15382 -51.31565,-83.2052 -2.20138,-1.28334 -6.43906,-2.33334 -9.41706,-2.33334 -10.85567,0 -20.94155,13.3131 -40.90991,54 -16.76666,34.1632 -27.64233,61.62616 -38.71521,97.7626 -28.00445,91.39281 -26.25776,154.38704 5.79413,208.9652 6.63753,11.30241 22.90219,31.75696 25.67678,32.2913 2.28425,0.43991 9.33411,-10.96436 27.74027,-44.87432 l 11.85476,-21.84021 -6.46185,-14.81896 c -6.96013,-15.96168 -7.63916,-19.47563 -4.39107,-22.72372 2.45642,-2.45642 14.81726,-2.77824 28.83543,-0.75073 4.91187,0.71042 9.78101,0.96537 10.82033,0.56655 1.42725,-0.54769 -1.97069,-8.39497 -13.88599,-32.06864 -8.6766,-17.23892 -16.18415,-33.52104 -16.68344,-36.18249 -1.10668,-5.89911 1.59962,-11.47141 5.87027,-12.08694 6.53768,-0.94229 25.50248,13.5808 37.96245,29.07133 2.6445,3.28771 5.12534,5.6605 5.51297,5.27287 0.85483,-0.85483 -3.44793,-32.14295 -7.32304,-53.25051 -4.75692,-25.91072 -13.95391,-62.11587 -22.44272,-88.34862 -8.53971,-26.39008 -9.16117,-29.6834 -6.33152,-33.55317 1.66679,-2.27947 1.99939,-2.2894 6.07601,-0.1813 11.27154,5.82874 30.74245,50.82823 41.39618,95.67132 9.37878,39.47663 18.42945,98.03962 19.10179,123.59957 l 0.32937,12.52115 -6.66667,4.66561 c -22.52214,15.76192 -37.16371,31.14588 -54.2101,56.95876 -17.37538,26.31107 -30.24624,53.15324 -44.00814,91.77893 -3.70122,10.38825 -9.31101,24.28773 -12.46619,30.88773 -18.45674,38.60772 -49.31903,71.21974 -90.23073,95.34631 -6.09665,3.59533 -11.98482,7.1047 -13.08482,7.79859 -1.63438,1.03097 -0.65939,2.64721 5.33333,8.841 9.84524,10.17557 27.69005,22.46936 48.44202,33.37306 9.40978,4.94418 17.45984,9.90449 17.88901,11.0229 1.23052,3.20669 -3.25556,5.90279 -25.91167,15.57269 -11.59732,4.94987 -21.68603,9.58986 -22.41936,10.31109 -1.7601,1.73105 11.01706,13.2621 26.48036,23.89784 6.49754,4.46903 27.19753,17.42118 46,28.78255 68.62691,41.46773 83.96628,52.23185 106.95544,75.05395 21.93994,21.7805 36.6002,45.95331 50.53974,83.33331 22.625,60.6708 32.17786,79.2599 50.59963,98.4629 21.42535,22.334 49.00271,34.6365 92.75814,41.3803 9.23792,1.4238 48.3247,-0.5328 60.80328,-3.0436 z m -96.21409,-60.241 c -15.78638,-2.4183 -27.88289,-11.8374 -33.09596,-25.7706 -8.58496,-22.9454 -6.83339,-67.7587 3.78569,-96.8557 10.8729,-29.79245 33.12411,-53.3102 62.54665,-66.10678 5.59593,-2.43381 12.65059,-4.79725 15.677,-5.25209 l 5.50257,-0.82697 0.94815,-17.14393 c 0.52149,-9.42916 0.62272,-17.6705 0.22496,-18.31409 -0.39776,-0.64359 -4.20059,-1.94089 -8.45073,-2.88289 -46.92763,-10.40101 -71.97504,-40.4725 -57.62683,-69.1858 2.45304,-4.90896 6.36035,-10.05783 9.72456,-12.81454 7.98669,-6.54449 23.71966,-13.56048 36.17475,-16.13185 14.78521,-3.05242 40.96821,-3.10565 54.66666,-0.11114 13.67504,2.9894 33.15883,12.37292 40.51592,19.51273 17.29688,16.78605 15.84059,39.9588 -3.60747,57.40285 -8.6379,7.74781 -27.23585,17.2974 -40.3953,20.74198 l -8.82018,2.30875 -0.83849,10.76908 c -0.46117,5.923 -0.84209,14.15924 -0.84648,18.30276 l -0.008,7.53368 7,1.64626 c 3.85,0.90544 12.61167,4.41529 19.47038,7.79965 20.66896,10.19891 38.65635,28.89982 48.34077,50.25835 8.72568,19.24409 14.51465,46.86989 14.50675,69.22839 -0.009,26.1955 -4.41858,41.2746 -15.23094,52.087 -9.37328,9.3732 -18.53841,12.7772 -36.08696,13.4029 -28.22409,1.0063 -108.29113,1.2885 -114.07747,0.402 z m 122.74414,-27.2883 c 9.07259,-5.3069 10.39038,-18.9364 2.67996,-27.7181 -4.84038,-5.5129 -21.78828,-13.5604 -34.79509,-16.5221 -13.67052,-3.1128 -48.95936,-3.0952 -61.55155,0.031 -11.62859,2.8867 -23.13528,8.7829 -28.93739,14.828 -4.0594,4.2294 -4.66729,5.7895 -5.13835,13.1873 -0.4818,7.5666 -0.18251,8.8085 3.04797,12.6477 1.97022,2.3415 5.48248,4.8202 7.80501,5.5083 2.38822,0.7076 27.68263,1.1461 58.22277,1.0095 51.77392,-0.2316 54.19238,-0.3541 58.66667,-2.9713 z M 519.48828,801.73846 c -5.45267,-0.81864 -13.21473,-3.50597 -20.93069,-7.24648 -22.31461,-10.81758 -36.84168,-28.66573 -46.62707,-57.28661 l -5.01449,-14.66667 -0.002,-24.66666 c -0.002,-29.05169 1.98456,-38.74137 12.439,-60.66666 13.29412,-27.88075 32.3535,-45.08052 56.9157,-51.36247 18.66599,-4.77396 38.64858,-2.78926 56.01837,5.56382 13.68052,6.57892 31.1225,24.47148 39.44628,40.46531 30.67271,58.93644 11.7462,135.15085 -40.03842,161.22917 -16.86636,8.49376 -34.13424,11.35061 -52.20682,8.63725 z m 28.71987,-20.57369 c 12.0025,-3.08204 21.19773,-8.07566 30.23905,-16.42185 26.95798,-24.88532 36.93532,-66.17672 25.08657,-103.82124 -7.10855,-22.58453 -23.40455,-43.30688 -40.71753,-51.77733 -10.01968,-4.90217 -24.75807,-6.92081 -36.209,-4.95935 -17.92159,3.06984 -32.4747,13.39403 -44.00471,31.21761 -11.81541,18.26475 -16.44758,35.29882 -16.44758,60.48334 0,24.06597 5.63001,43.81451 17.18835,60.29205 14.95848,21.32479 40.62388,31.21143 64.86485,24.98677 z m -8.95267,-46.12092 c -10.6138,-6.31348 -16.30494,-26.62443 -13.2669,-47.34787 2.73096,-18.62872 10.40374,-28.49061 22.16637,-28.49061 11.50434,0 19.58854,10.08011 22.3399,27.8554 2.71378,17.53254 -3.31187,40.32483 -12.45534,47.11289 -5.34757,3.97 -12.97852,4.32352 -18.78403,0.87019 z m 274.89945,65.88969 c -21.91469,-2.40306 -49.04707,-20.15735 -62.60411,-40.96549 -23.19842,-35.60631 -24.39055,-86.94581 -2.97447,-128.09601 8.11041,-15.58383 24.36481,-32.39619 38.24525,-39.55807 17.708,-9.13678 39.39308,-11.50854 58.02246,-6.34608 14.4234,3.99693 21.94146,8.54023 34.03798,20.56977 8.74324,8.69483 12.02801,13.20822 17.76127,24.40459 3.97616,7.76494 8.55045,19.35793 10.52199,26.66666 3.05928,11.34111 3.49485,15.55102 3.54503,34.26313 0.0515,19.20824 -0.30598,22.66152 -3.58872,34.66666 -11.12252,40.67554 -35.45169,66.41342 -69.2438,73.25317 -9.97387,2.01878 -13.97019,2.21111 -23.72288,1.14167 z m 32.48635,-24.76212 c 29.96885,-14.23214 48.04221,-50.00377 45.81189,-90.67299 -1.38358,-25.22921 -10.77252,-47.51836 -26.78021,-63.57569 -24.97236,-25.04979 -61.18579,-24.96644 -86.2518,0.1985 -9.97148,10.01083 -17.12226,22.16674 -22.99148,39.08413 -3.95365,11.39599 -4.16571,13.04025 -4.2129,32.66667 -0.0394,16.39662 0.45774,22.31959 2.40625,28.66666 6.39156,20.81991 20.32869,40.98512 34.19857,49.48086 12.92294,7.91572 20.36564,9.95687 34.68216,9.51156 11.45033,-0.35616 13.69771,-0.87675 23.13752,-5.3597 z m -43.36445,-41.66481 c -18.0155,-9.78507 -17.087,-64.68687 1.24107,-73.38411 6.6754,-3.16768 15.39586,-1.95247 20.4012,2.84295 14.85346,14.23053 13.15812,59.1114 -2.62802,69.57133 -5.25346,3.48095 -13.60654,3.90701 -19.01425,0.96983 z m -166.45522,41.62982 c 0,-5.01612 18.29196,-15.55702 31.89834,-18.38169 4.19306,-0.87048 13.32399,-1.27403 21.05102,-0.93037 12.38745,0.55093 14.54086,1.05319 23.34833,5.4458 9.34424,4.66031 18.36897,11.70369 18.36897,14.33611 0,1.87516 -3.48251,1.5724 -18.12094,-1.57536 -17.07354,-3.67139 -39.28516,-3.90578 -55.87906,-0.58968 -19.42467,3.88179 -20.66666,3.98367 -20.66666,1.69519 z M 451.42604,571.79704 c -1.39786,-1.68431 -1.28417,-2.93965 0.63296,-6.98904 8.71413,-18.40607 34.19467,-47.89457 48.93891,-56.63673 19.46796,-11.54296 44.68037,-14.98762 64.62036,-8.82878 13.23984,4.08937 21.85765,13.75415 16.20334,18.17188 -0.91667,0.71619 -11.26667,1.97139 -23,2.78931 -42.14489,2.93792 -61.4329,11.46367 -92.27172,40.78629 -11.64238,11.06998 -13.64564,12.48821 -15.12385,10.70707 z M 890.0195,561.0952 c -14.8407,-15.13157 -26.1508,-23.94619 -40.04762,-31.21142 -13.94914,-7.29259 -28.57935,-10.5031 -53.55062,-11.75136 -21.50371,-1.07492 -24.93299,-2.06846 -24.93299,-7.22363 0,-4.16916 7.94326,-11.00084 16.66666,-14.33432 10.62606,-4.06053 33.28017,-4.49509 45.33333,-0.86958 14.12956,4.25007 25.91916,11.36476 36.68761,22.13995 14.83753,14.8468 37.37022,49.14538 35.49565,54.03042 -0.42143,1.09823 -1.29601,1.99679 -1.94351,1.99679 -0.6475,0 -6.81633,-5.74959 -13.70851,-12.77685 z"
       id="path1" />
  </g>
</svg>
