<?xml version="1.0" encoding="UTF-8" standalone="no"?>
<!-- Created with Inkscape (http://www.inkscape.org/) -->

<svg
   version="1.1"
   id="svg1"
   width="1365.3333"
   height="1365.3333"
   viewBox="0 0 1365.3333 1365.3333"
   xmlns="http://www.w3.org/2000/svg"
   xmlns:svg="http://www.w3.org/2000/svg">
  <defs
     id="defs1" />
  <g
     id="g1">
    <g
       id="g11"
       transform="translate(9.645943,0.04681499)">
      <path
         style="fill:#78c1ab"
         d="m 665.58331,1027.6793 c -0.22606,0.2261 -0.3384,-147.4898 -0.24964,-328.25749 l 0.16139,-328.66852 71.84047,-0.01 71.84046,-0.01 -71.75,0.26644 -71.75,0.26644 v 36.29342 c 0,26.89489 0.31075,36.60418 1.2,37.49342 0.88862,0.88863 10.48601,1.2 36.98704,1.2 h 35.78704 l 0.26296,34.75 0.26296,34.75 35.5,0.5 35.5,0.5 0.26247,36.25 c 0.14436,19.9375 0.14436,36.34824 0,36.46831 -0.14436,0.12006 -16.46247,0.45756 -36.26247,0.75 l -36,0.53169 -0.5,73 -0.5,73 -35.22524,0.26277 -35.22524,0.26277 -0.46433,35.73723 c -0.25538,19.65548 -0.64489,84.90311 -0.86559,144.99473 -0.2207,60.09163 -0.58622,109.44239 -0.81228,109.66849 z m 182.87875,-0.6631 -34.71392,0.2629 -0.28608,-35.93064 c -0.15734,-19.76186 -0.66059,-36.30517 -1.11832,-36.76291 -0.45774,-0.45774 -17.00105,-0.96099 -36.76292,-1.11833 l -35.93067,-0.28607 0.26292,-34.71393 0.26292,-34.71393 36,-0.5 36,-0.5 0.5,-36.5 0.5,-36.5 72,-0.5 72,-0.5 0.26263,-35.75 0.26263,-35.75 h 35.98737 35.98738 v 72 72 h -35.37757 c -28.3049,0 -35.59932,0.26722 -36.48685,1.33663 -0.75409,0.90862 -1.19356,12.51638 -1.37245,36.25 l -0.26314,34.91337 -35.13807,0.26267 c -27.68618,0.20697 -35.37109,0.54345 -36.23686,1.58663 -0.74051,0.89226 -1.18458,12.70784 -1.36193,36.23733 l -0.26314,34.91338 z M 993.15089,588.25329 h -35.5251 l 0.54067,-35.25 c 0.29737,-19.3875 0.64617,-84.525 0.7751,-144.75 l 0.23443,-109.5 34.75,-0.26295 34.75001,-0.26296 v 145.01296 145.01295 z"
         id="path15" />
      <path
         style="fill:#c0748d"
         d="m 848.67599,808.75336 c -23.09489,0.31414 -37.0509,0.13547 -38,-0.48648 -0.90765,-0.59479 -15.01535,-0.98901 -35.7249,-0.99827 l -34.2249,-0.0153 -0.53848,-35.25 c -0.29616,-19.3875 -0.53847,-51.9 -0.53847,-72.25 0,-20.35 0.24229,-52.85122 0.53842,-72.22495 l 0.53842,-35.22495 35.22495,-0.53843 c 19.37373,-0.29613 51.87496,-0.53842 72.22496,-0.53842 20.35,0 52.84612,0.24228 72.21361,0.5384 l 35.21361,0.5384 0.56185,35.72498 c 0.30903,19.64873 0.55635,52.14997 0.5496,72.22497 -0.007,20.075 -0.25447,52.35123 -0.55051,71.72496 l -0.53825,35.22495 -35.22496,0.52685 c -19.37372,0.28977 -51.64995,0.75026 -71.72495,1.02331 z m -0.5,-71.50007 c 25.96666,0 35.41225,-0.31225 36.3,-1.2 0.88775,-0.88774 1.2,-10.33333 1.2,-36.3 0,-25.96666 -0.31225,-35.41225 -1.2,-36.3 -0.88775,-0.88774 -10.33334,-1.2 -36.3,-1.2 -25.96667,0 -35.41225,0.31226 -36.3,1.2 -0.88775,0.88775 -1.2,10.33334 -1.2,36.3 0,25.96667 0.31225,35.41226 1.2,36.3 0.88775,0.88775 10.33333,1.2 36.3,1.2 z"
         id="path14" />
      <path
         style="fill:#69a995"
         d="m 667.12599,1173.2041 c -0.60001,0.6006 -0.84923,-12.2017 -0.67647,-34.75 l 0.27353,-35.7008 34.97647,0.2751 34.97647,0.2751 v 34.4749 34.4749 h -34.3 c -20.35146,0 -34.68633,0.3867 -35.25,0.9508 z m 180.53973,-142.9508 c -32.51163,0 -33.96233,-0.08 -34.95455,-1.9343 -0.65792,-1.2293 -1.03518,-14.8959 -1.03518,-37.49996 v -35.56575 h -35.8 c -26.51111,0 -36.11136,-0.31135 -37,-1.2 -0.88652,-0.88651 -1.2,-10.12834 -1.2,-35.37755 0,-27.30605 0.26877,-34.40062 1.33683,-35.28703 0.90989,-0.75514 12.64654,-1.19345 36.75,-1.37244 l 35.41317,-0.26298 0.26283,-35.93305 c 0.2054,-28.0821 -0.0131,-36.1082 -1,-36.73469 -0.69456,-0.44089 -33.21283,-0.80833 -72.26283,-0.81652 l -71,-0.0149 0.27474,-35.47569 0.27473,-35.47569 35.72527,-0.27474 c 22.98281,-0.17674 35.98731,0.0819 36.45995,0.72526 0.40407,0.55 0.74157,16.4125 0.75,35.25 l 0.0153,34.25 h 33.95295 c 21.4984,0 34.79554,0.38367 36.25,1.04593 2.29705,1.04593 2.29705,1.04593 1.79705,37.75 l -0.5,36.70407 -36,0.5 -36,0.5 -0.26292,34.71393 -0.26292,34.71393 35.93067,0.28607 c 19.76187,0.15734 36.30518,0.66059 36.76292,1.11833 0.45773,0.45774 0.96098,17.00105 1.11832,36.76291 l 0.28608,35.93066 34.71392,-0.2629 34.71393,-0.2629 0.26267,-35.13809 c 0.20696,-27.68619 0.54344,-35.3711 1.58662,-36.23686 0.89227,-0.74051 12.70784,-1.18459 36.23733,-1.36193 l 34.91338,-0.26315 0.26314,-34.91337 c 0.17889,-23.73362 0.61836,-35.34138 1.37245,-36.25 0.88753,-1.06941 8.18195,-1.33663 36.48685,-1.33663 h 35.37758 v -72 -72 h -35.98739 -35.98737 l -0.26263,35.75 -0.26263,35.75 -36.5,0.24208 c -24.02587,0.15935 -35.98737,-0.0917 -35,-0.73468 0.90091,-0.58666 15.1692,-0.98289 35.7249,-0.99208 l 34.2249,-0.0153 0.51944,-34.75 c 0.2857,-19.1125 0.87057,-51.175 1.29972,-71.25 l 0.78026,-36.5 0.22539,34.75 0.22539,34.75 34.75,0.0173 c 34.75002,0.0173 34.75002,0.0173 37.00002,2.39095 2.25,2.37367 2.25,2.37367 2.25,72.43727 0,70.0636 0,70.0636 -2.5455,72.60905 -2.5454,2.54545 -2.5454,2.54545 -36.49998,2.54545 h -33.95454 v 33.95455 c 0,33.95455 0,33.95455 -2.54546,36.5 -2.54545,2.54545 -2.54545,2.54545 -36.5,2.54545 h -33.95454 v 33.95455 c 0,33.95454 0,33.95454 -2.54546,36.49994 -2.54545,2.5455 -2.54545,2.5455 -36.46481,2.5455 z M 739.6686,662.25329 c -0.64295,0.98737 -0.89403,-10.97413 -0.73469,-35 l 0.24208,-36.5 36,-0.53169 c 19.8,-0.29244 36.11811,-0.62994 36.26247,-0.75 0.14436,-0.12007 0.14436,-16.53081 0,-36.46831 l -0.26247,-36.25 -35.5,-0.5 -35.5,-0.5 -0.26295,-34.73753 -0.26294,-34.73754 -36.23706,-0.27533 c -19.93038,-0.15144 -3.74038,-0.38204 35.97776,-0.51246 70.24573,-0.23067 72.24305,-0.28988 73.25,-2.17139 0.65547,-1.22475 1.03519,-14.42997 1.03519,-36 v -34.06575 h 35 35 v 71.37756 c 0,59.16712 0.23403,71.57178 1.36805,72.51294 0.9775,0.81125 11.4689,1.06032 36.75,0.87244 l 35.38195,-0.26294 0.2756,-71.5 c 0.15158,-39.325 0.0305,-72.5125 -0.26905,-73.75 -0.54466,-2.25 -0.54466,-2.25 -35.5256,-2.25 h -34.98095 v -71.5 -71.5 h 70.83646 70.83645 l 0.6635,52.66453 c 0.365,28.96549 0.6636,110.41549 0.6636,181 v 128.33547 h -35.87757 c -30.93041,0 -36.05205,0.21026 -37.14301,1.52479 -1.1059,1.33253 -5.69206,1.45693 -36.37245,0.98663 -19.30884,-0.29599 -51.75698,-0.53817 -72.10698,-0.53817 -20.35,0 -52.8625,0.24232 -72.25,0.53848 l -35.25,0.53848 -0.0153,34.2249 c -0.009,20.55569 -0.40543,34.82399 -0.99208,35.72489 z m 253.48229,-74 H 1028.676 V 443.24034 298.22738 l -34.75001,0.26296 -34.75,0.26295 -0.23443,109.5 c -0.12893,60.225 -0.47773,125.3625 -0.7751,144.75 l -0.54067,35.25 z"
         id="path13" />
      <path
         style="fill:#568879"
         d="m 739.09918,1247.0098 c -39.64224,0.1411 -72.37974,-0.046 -72.75,-0.4166 -0.37025,-0.3703 -0.67319,-16.7082 -0.67319,-36.3066 0,-26.3815 0.31157,-35.9449 1.2,-36.8333 0.88668,-0.8867 10.15555,-1.2 35.5,-1.2 h 34.3 v -34.487 -34.4871 l -34.75,-0.2629 -34.75,-0.263 -0.87136,-72.3673 c -0.65808,-54.65453 -0.58445,-73.25641 0.3008,-75.99998 0.84937,-2.63234 1.01805,-12.99573 0.61253,-37.63273 -0.3078,-18.7 -0.66816,-50.65 -0.8008,-71 l -0.24117,-37 70.5,-0.27565 c 38.775,-0.1516 71.5181,-0.0291 72.76245,0.27218 2.26245,0.54783 2.26245,0.54783 2,36.77565 l -0.26245,36.22782 -35.41317,0.26298 c -24.10346,0.17899 -35.84011,0.6173 -36.75,1.37244 -1.06806,0.88641 -1.33683,7.98098 -1.33683,35.28703 0,25.24921 0.31348,34.49104 1.2,35.37755 0.88864,0.88865 10.48889,1.2 37,1.2 h 35.8 v 35.56575 c 0,22.60406 0.37726,36.27066 1.03518,37.49996 0.99222,1.854 2.44292,1.9343 34.95455,1.9343 33.91936,0 33.91936,0 36.46481,-2.5455 2.54546,-2.5454 2.54546,-2.5454 2.54546,-36.49996 v -33.95455 h 33.95454 c 33.95455,0 33.95455,0 36.5,-2.54545 2.54546,-2.54545 2.54546,-2.54545 2.54546,-36.5 v -33.95455 h 33.95454 c 33.95457,0 33.95457,0 36.49997,-2.54545 2.5455,-2.54545 2.5455,-2.54545 2.5282,-72.75 -0.017,-70.20455 -0.017,-70.20455 -2.3909,-72.45455 -2.3677,-2.24426 -2.4619,-2.25 -36.98276,-2.25 H 958.67599 V 700.3676 c 0,-28.11356 -0.25446,-34.3736 -1.49384,-36.75 -1.24065,-2.37884 -1.49488,-8.72015 -1.5,-37.41431 -0.005,-25.54597 0.30657,-34.86273 1.19384,-35.75 0.88864,-0.88864 10.48889,-1.2 37,-1.2 H 1029.676 V 460.91782 c 0,-70.58451 -0.2986,-152.03451 -0.6636,-181 l -0.6635,-52.66453 h -70.83645 -70.83646 v 71.5 71.5 h 34.98095 c 34.98094,0 34.98094,0 35.5256,2.25 0.29956,1.2375 0.42063,34.425 0.26905,73.75 l -0.2756,71.5 -35.38195,0.26294 c -25.2811,0.18788 -35.7725,-0.0612 -36.75,-0.87244 -1.13402,-0.94116 -1.36805,-13.34582 -1.36805,-72.51294 v -71.37756 h -35 -35 v 34.30888 c 0,25.87333 -0.30734,34.72704 -1.25,36.00966 -1.15985,1.57814 -6.47884,1.68207 -73.75,1.44113 l -72.5,-0.25967 v -36.5 -36.5 l 72.5,-0.5 72.5,-0.5 0.5,-72.5 0.5,-72.5 36,-0.5 36,-0.5 0.5,-36 0.5,-36 h 72.5 72.50001 l 0.5,36 0.5,36 36,0.5 36,0.5 v 182 182 l -36,0.5 -36,0.5 v 36 36 l 36,0.5 36,0.5 0.5,36 0.5,36 36,0.5 36,0.5 v 72.5 72.5 l -36,0.5 -36,0.5 -0.5,36 -0.5,36 -36,0.5 -36,0.5 -0.5,36 -0.5,36.00001 -36.00001,0.5 -36,0.5 -0.5,36 -0.5,36 -36,0.5 -36,0.5 -0.5,36 -0.5,36 -36,0.5 -36,0.5 -0.5,36 -0.5,36 z m -0.43582,-0.7565 h 72.01263 v -36.0066 -36.0066 l -71.75,0.2566 -71.75,0.2566 -0.26263,35.75 -0.26263,35.75 z m 109.01263,-73 h 36 v -36 -36 h -36 -36 v 36 36 z m -73.33334,-73 h 36.33334 v -35.9872 -35.9872 l -35.25,-0.2628 -35.25,-0.2628 -0.26315,-34.91338 c -0.18039,-23.93356 -0.6153,-35.3377 -1.38294,-36.26265 -0.90863,-1.09484 -7.74167,-1.29974 -36.23685,-1.08662 l -35.11706,0.26264 -0.27896,35 c -0.15343,19.25001 -0.0323,36.01251 0.26905,37.25001 0.54801,2.25 0.54801,2.25 35.02896,2.25 h 34.48095 v 34.3333 c 0,18.8834 0.3,34.6334 0.66666,35 0.36667,0.3667 17.01667,0.6667 37,0.6667 z m 146.32071,0 h 36.01263 v -36.0126 -36.0127 l -35.75,0.2627 -35.75,0.2626 -0.26263,35.75 -0.26263,35.75 z m 73,-73 h 36.01264 v -36.01264 -36.01263 l -35.75001,0.26263 -35.75,0.26263 -0.26263,35.75 -0.26263,35.75001 z m 73.00004,-73.00001 h 36.0126 v -36.01263 -36.01263 l -35.75,0.26263 -35.75,0.26263 -0.2626,35.75 -0.2627,35.75 z m -363.76388,-72.23717 35.27647,-0.26283 0.26261,-35.72778 c 0.2626,-35.72778 0.2626,-35.72778 -2,-36.27924 -1.24444,-0.3033 -17.33761,-0.4258 -35.76261,-0.27222 l -33.5,0.27924 -0.26324,34.99432 c -0.14478,19.24687 -0.0442,35.56514 0.22354,36.26282 0.38314,0.99845 7.99681,1.21256 35.76323,1.00569 z m 436.77648,-0.76283 h 36 v -72 -72 h -36 -36 v 72 72 z m -72.3333,-145 h 35.3333 v -36 -36 h -36 -36 v 35.33334 c 0,19.43333 0.3,35.63333 0.6667,36 0.3666,0.36666 16.5666,0.66666 36,0.66666 z m -73.1981,-73 h 35.5314 v -36.51263 -36.51263 l -35.75001,0.26263 -35.75,0.26263 -0.26324,34.99432 c -0.14478,19.24687 -0.0464,35.55937 0.21862,36.25 0.37413,0.97498 8.42478,1.25568 36.01323,1.25568 z m 72.5314,-74 h 36 v -181.5 -181.5 h -36 -36 v 181.5 181.5 z m -327.07677,-145.24342 71.57676,-0.25658 0.26263,-35.75 0.26263,-35.75 h -72.51263 -72.51263 v 35.33334 c 0,19.43333 0.30295,35.63629 0.67324,36.00657 0.37028,0.37028 32.88278,0.55778 72.25,0.41667 z m 108.82676,-72.99394 35.75,-0.26264 0.25657,-72.25 0.25658,-72.25 h -36.00658 -36.00657 v 72.51264 72.51263 z m 109.25,-145.76264 h 72.00001 v -36 -36 h -72.00001 -72 v 36 36 z m -109.5,512 c -25.96667,0 -35.41225,-0.31225 -36.3,-1.2 -0.88775,-0.88774 -1.2,-10.33333 -1.2,-36.3 0,-25.96666 0.31225,-35.41225 1.2,-36.3 0.88775,-0.88774 10.33333,-1.2 36.3,-1.2 25.96666,0 35.41225,0.31226 36.3,1.2 0.88775,0.88775 1.2,10.33334 1.2,36.3 0,25.96667 -0.31225,35.41226 -1.2,36.3 -0.88775,0.88775 -10.33334,1.2 -36.3,1.2 z m 0.22347,-1.23733 35.77653,-0.26267 v -36 -36 h -36 -36 l -0.26324,34.99432 c -0.14478,19.24687 -0.0442,35.56507 0.22347,36.26266 0.3832,0.9986 8.0954,1.21248 36.26324,1.00569 z"
         id="path12" />
      <path
         style="fill:#141815"
         d="m 738.66336,1246.2533 h -72.01263 l 0.26263,-35.75 0.26263,-35.75 71.75,-0.2566 71.75,-0.2566 v 36.0066 36.0066 z m 109.01263,-73 h -36 v -36 -36 h 36 36 v 36 36 z m -73.33334,-73 c -19.98333,0 -36.63333,-0.3 -37,-0.6667 -0.36666,-0.3666 -0.66666,-16.1166 -0.66666,-35 v -34.3333 h -34.48095 c -34.48095,0 -34.48095,0 -35.02896,-2.25 -0.3014,-1.2375 -0.42248,-18 -0.26905,-37.25001 l 0.27896,-35 35.11706,-0.26264 c 28.49518,-0.21312 35.32822,-0.008 36.23685,1.08662 0.76764,0.92495 1.20255,12.32909 1.38294,36.26265 l 0.26315,34.91338 35.25,0.2628 35.25,0.2628 v 35.9872 35.9872 z m 146.32071,0 h -36.01263 l 0.26263,-35.75 0.26263,-35.75 35.75,-0.2626 35.75,-0.2627 v 36.0127 36.0126 z m 73,-73 h -36.01263 l 0.26263,-35.75001 0.26263,-35.75 35.75,-0.26263 35.75001,-0.26263 v 36.01263 36.01264 z m 73.00004,-73.00001 h -36.0127 l 0.2627,-35.75 0.2626,-35.75 35.75,-0.26263 35.75,-0.26263 v 36.01263 36.01263 z M 702.89952,882.01612 c -27.76642,0.20687 -35.38009,-0.007 -35.76323,-1.00569 -0.26773,-0.69768 -0.36832,-17.01595 -0.22354,-36.26282 l 0.26324,-34.99432 33.5,-0.27924 c 18.425,-0.15358 34.51817,-0.0311 35.76261,0.27222 2.2626,0.55146 2.2626,0.55146 2,36.27924 l -0.26261,35.72778 z m 436.77648,-0.76283 h -36 v -72 -72 h 36 36 v 72 72 z M 848.39946,736.01596 c -28.16784,0.20679 -35.88004,-0.007 -36.26324,-1.00569 -0.26769,-0.69759 -0.36825,-17.01579 -0.22347,-36.26266 l 0.26324,-34.99432 h 36 36 v 36 36 z m 218.94324,0.23733 c -19.4334,0 -35.6334,-0.3 -36,-0.66666 -0.3667,-0.36667 -0.6667,-16.56667 -0.6667,-36 v -35.33334 h 36 36 v 36 36 z m -73.1981,-73 c -27.58845,0 -35.6391,-0.2807 -36.01323,-1.25568 -0.26502,-0.69063 -0.3634,-17.00313 -0.21862,-36.25 l 0.26324,-34.99432 35.75,-0.26263 35.75001,-0.26263 v 36.51263 36.51263 z m 72.5314,-74 h -36 v -181.5 -181.5 h 36 36 v 181.5 181.5 z M 739.59923,444.00987 c -39.36722,0.14111 -71.87972,-0.0464 -72.25,-0.41667 -0.37029,-0.37028 -0.67324,-16.57324 -0.67324,-36.00657 v -35.33334 h 72.51263 72.51263 l -0.26263,35.75 -0.26263,35.75 z m 108.82676,-72.99394 -35.75,0.26263 v -72.51263 -72.51264 h 36.00657 36.00658 l -0.25658,72.25 -0.25657,72.25 z m 109.25,-145.76264 h -72 v -36 -36 h 72 72.00001 v 36 36 z"
         id="path11" />
    </g>
    <path
       id="path7"
       style="fill:#78c2ac;fill-opacity:1;stroke-width:1.08"
       d="m 684.35352,912.06641 c -0.0689,2.3194 -0.1337,4.74697 -0.43555,6.82031 0.44004,6.48388 -1.74145,14.64685 0.31641,20.85742 z" />
    <path
       id="path36"
       style="fill:#78c2ac;fill-opacity:1;stroke-width:1.08"
       d="m 686.44336,425.39258 c -5.67088,-0.0956 -11.34134,-0.35465 -17.00977,-0.25391 -40.35179,0.93838 -80.1804,8.05066 -119.65039,15.93555 -19.10767,-55.96389 -39.77518,-111.99515 -66.5039,-165.02149 -16.13002,-31.66845 -32.71446,-63.33594 -53.0625,-92.52929 -5.6791,-7.81252 -14.25894,-13.94784 -24.28711,-13.5293 -16.77739,1.00205 -25.86861,17.65012 -33.65235,30.39453 -33.36167,60.12397 -58.18598,125.43194 -70.18359,193.24805 -8.94847,47.81067 -5.30461,99.18543 17.79883,142.66601 7.99368,14.54329 17.38328,28.81242 29.53515,40.17383 8.59954,6.22697 19.79175,0.10887 24.01172,-8.41992 11.67935,-19.0758 22.26134,-38.9276 32.56836,-58.70703 2.50214,-9.47205 -5.35585,-17.82673 -7.78906,-26.72852 -1.06981,-3.12091 -4.49066,-8.37239 1.39063,-6.79492 9.69236,-0.86174 19.40972,2.63767 28.95312,1.03516 8.49203,-2.56498 8.97121,-13.14164 4.55664,-19.48828 -8.63225,-19.7835 -18.98605,-38.65197 -27.00391,-58.61524 11.91221,5.99024 18.76872,19.42718 31.6875,23.48047 8.14773,2.63258 17.45025,-3.96786 15.93555,-12.87305 -5.73881,-45.39563 -15.95084,-90.1732 -29.75586,-133.79101 23.41893,49.84306 31.76656,105.14493 39.45703,159.24414 1.26063,12.79403 3.52009,25.99068 3.01367,38.66992 -26.08413,18.16671 -47.64224,42.21977 -64.05078,69.37305 -22.18501,34.03923 -34.37719,73.05066 -49.97851,110.22851 -18.21281,43.2607 -53.76954,76.92943 -93.96094,100.00196 -8.33129,4.10987 -14.86884,14.93058 -8.41992,23.41601 16.47585,19.10558 39.73258,30.3835 60.97851,43.26367 -11.44882,6.22682 -24.99326,9.09538 -35.0039,17.67774 -6.98375,7.87914 -2.42207,19.75716 5.6914,24.86914 28.31158,22.94282 60.89292,39.80437 91.4375,59.48828 37.47242,23.00502 76.53172,47.17372 100.99414,84.86716 21.13725,32.1674 30.88117,69.4699 46.80079,104.3574 13.26352,32.5715 37.07319,61.6935 69.42968,76.6192 19.94076,9.5402 41.86853,14.8699 63.5586,17.543 9.68336,-0.032 19.43263,-0.1845 29.16797,-0.5645 l 0.35156,-81.8301 c -22.60933,0.1272 -45.28336,0.023 -67.72656,-0.6465 -14.2528,-1.1297 -23.88857,-14.4838 -25.58985,-27.873 -4.1655,-27.9535 -2.5672,-57.3894 7.3711,-84.0137 12.37652,-32.44283 42.1736,-56.92452 75.90625,-64.33005 10.34378,-4.32356 6.90706,-17.30354 8.24804,-26.13282 -0.34942,-8.96383 4.32725,-22.20189 -6.48242,-26.58593 -18.256,-5.86818 -38.06239,-10.34755 -52.22461,-24.29688 -6.4347,-5.9746 -11.86809,-14.14634 -10.30469,-23.33008 -1.3364,-16.37574 14.93763,-26.46966 28.48829,-31.20117 12.48424,-4.77507 26.05294,-5.90744 39.3125,-6.03711 v -0.004 c 1.43842,-0.0238 2.90308,0.21999 4.35156,0.25 z m -139.53125,80.42187 c 6.7823,0.22128 13.54299,1.65863 19.80469,4.2793 -26.65369,2.06639 -54.85464,4.96536 -77.41992,20.68555 9.17385,-10.86111 21.48406,-18.60285 35.27929,-22.06836 7.25629,-2.00839 14.79755,-3.1148 22.33594,-2.89649 z m -11.19922,87.97071 c 14.13007,-1.0966 28.47438,2.36612 39.87305,10.96093 28.67494,20.34993 42.80489,56.84235 40.77344,91.3418 0.76486,23.60226 -7.98931,47.73837 -22.34376,66.64844 -17.62162,23.07609 -49.01073,35.08987 -77.40234,28.54101 -22.54427,-6.11119 -41.83794,-22.76468 -50.52344,-44.54296 -5.1015,-12.00144 -11.41662,-24.38238 -9.49023,-37.7793 0.82623,-20.75138 -1.48103,-42.82029 8.61523,-61.86133 10.13272,-24.69802 30.13184,-48.32844 57.64063,-52.97852 4.27465,-0.35712 8.57243,-0.28385 12.85742,-0.33007 z" />
    <path
       style="fill:none;stroke-width:1.08"
       d="m 405.80092,179.00761 c -12.12893,1.63121 -18.19403,14.30283 -24.29152,23.43301 -32.41083,57.44027 -56.42197,119.9178 -69.12123,184.69946 -8.58276,42.2825 -8.73449,87.41284 7.64992,127.90942 7.85658,19.90583 19.46921,38.49494 34.31737,53.89444 6.51924,4.02048 10.95086,-4.82951 13.76997,-9.30443 10.34408,-17.87392 20.60431,-36.05913 29.78011,-54.41757 -3.85984,-11.30687 -11.3413,-22.02746 -11.67959,-34.23511 2.12393,-6.32141 10.60996,-3.39569 15.71905,-4.14913 8.04558,-0.43736 16.1101,1.70277 24.04683,1.37742 2.99533,-2.88137 -2.08971,-7.18494 -2.53792,-10.38448 -8.51884,-19.9679 -19.86303,-38.77528 -26.73384,-59.37244 -1.49812,-5.04905 2.97188,-13.09487 8.81929,-9.8128 13.3835,4.64165 21.34717,17.46458 33.08971,24.50668 3.09245,1.54031 7.45924,0.2045 6.08132,-3.93187 -6.17588,-48.37294 -17.89121,-95.84267 -32.71452,-142.25318 -1.09502,-6.81341 -6.0898,-15.66725 -0.9616,-21.82218 10.11731,3.24492 14.33392,14.68663 19.35224,23.0915 25.53949,52.24647 34.24949,110.556 42.24213,167.57102 1.17313,13.28172 3.71393,26.6733 2.76467,39.95719 -3.68198,7.77594 -13.01945,10.76219 -18.8409,16.77161 -35.73538,29.96939 -58.99754,71.98082 -76.2443,114.6708 -13.20606,33.63657 -24.53815,69.2572 -48.72543,96.94769 -19.13947,23.78572 -43.94827,42.131 -70.00161,57.70608 -4.05237,1.94951 -7.36686,7.41664 -3.03328,10.97085 19.03735,19.79056 44.88094,30.56126 67.22779,45.80289 2.91456,2.87409 -3.37351,5.04361 -5.13421,6.38507 -12.18272,6.88741 -26.17086,10.52449 -37.80838,18.30725 -4.4023,6.16628 3.8138,11.37973 7.87639,14.8099 31.6297,23.93358 66.8634,42.53653 100.09718,64.08443 37.337,22.68831 74.26207,49.58679 96.30427,88.24737 21.90413,37.5639 31.5917,80.8356 52.9748,118.6507 16.20796,28.7599 44.27845,49.7314 75.81715,58.9021 12.97796,3.5929 26.21833,7.1931 39.65618,8.2055 27.07437,-0.1819 54.78816,-0.067 80.60121,-9.4205 36.98192,-11.4061 70.02297,-38.0789 85.3726,-74.0558 18.53087,-39.5616 28.75408,-84.0882 57.98022,-117.72683 27.53297,-33.81182 64.93489,-57.06229 101.7388,-79.44602 29.39271,-19.01924 60.67091,-35.78445 86.90031,-59.21073 3.6054,-2.58756 3.4118,-8.33704 -1.3268,-9.48373 -17.0546,-8.76087 -35.3673,-15.6077 -51.9665,-24.89902 6.3507,-7.1262 16.5198,-9.59647 24.4145,-14.70338 18.6746,-10.77502 38.2999,-21.01586 53.8263,-36.20209 4.4797,-5.75199 -4.2106,-10.10711 -8.0831,-12.7849 -41.2715,-25.64845 -76.485,-62.73787 -94.68492,-108.29546 -13.34794,-33.20512 -25.4545,-67.12866 -43.7954,-98.03654 -17.20095,-31.4886 -42.65463,-57.87586 -72.34717,-77.81935 0.59454,-27.37975 5.20157,-54.49902 10.17682,-81.37621 9.80286,-45.37668 23.15631,-90.5686 44.94594,-131.69366 3.75743,-5.91593 8.86618,-15.59897 17.21181,-13.43867 -0.10177,12.82238 -6.76507,24.67537 -10.06859,36.91173 -13.45446,41.36376 -23.07455,83.94626 -30.7815,126.69957 2.05609,4.59236 9.26163,1.82446 11.05522,-1.89 8.45258,-9.34664 18.98768,-17.67295 31.03729,-21.65902 6.4814,-0.67081 4.75823,7.61202 3.41297,11.37373 -6.58843,21.1666 -19.70556,39.83545 -27.16027,60.67396 0.0112,7.25067 11.31364,1.80558 16.13635,3.3056 6.59327,0.54844 14.04115,-1.59881 20.16383,1.10721 3.54889,6.41953 -2.04817,13.46291 -3.92031,19.68314 -2.21446,6.61269 -7.10115,13.0159 -7.30156,20.03422 10.005,20.63429 21.81242,40.36301 32.82394,60.47569 1.63242,3.9706 6.76627,7.83447 10.50256,3.90444 19.76709,-18.95884 34.53169,-43.23382 43.05019,-69.22747 14.1578,-50.98288 6.5857,-104.91747 -4.799,-155.66038 -12.0011,-50.55399 -28.3616,-100.52408 -53.01017,-146.40595 -4.89174,-8.86377 -12.72017,-19.77134 -24.32556,-17.64902 -11.26042,2.03096 -17.58687,13.25063 -24.70919,21.07684 -34.04941,45.37743 -61.05311,95.65061 -85.48106,146.72369 -14.68811,29.94156 -25.33004,61.66259 -36.7296,92.85664 -1.67103,3.79765 -3.71862,10.59202 -9.22851,8.47967 -43.39672,-10.26563 -88.38043,-15.69139 -133.08025,-14.12014 -37.91449,1.34986 -75.31376,8.14576 -112.42318,15.56506 -5.78237,1.85541 -10.26123,0.14767 -10.65911,-6.5605 -19.96019,-58.75432 -41.83556,-117.07688 -70.3508,-172.3063 -14.85546,-28.27456 -29.70992,-56.7924 -48.26083,-82.85138 -3.95506,-5.24424 -9.72963,-9.62312 -16.61552,-9.16733 z M 811.9309,493.75328 c 25.23465,-0.80172 49.3345,12.56728 64.72841,32.03192 10.7916,13.39855 21.26547,27.45993 28.42356,43.19882 1.16694,2.8915 -1.76877,6.13222 -3.64078,2.42789 -21.01191,-19.71423 -42.0356,-42.79296 -71.4191,-49.17367 -18.09834,-4.94733 -37.22846,-3.40255 -55.3014,-7.42921 -5.89412,-1.95267 -0.76794,-8.65742 2.26758,-10.94552 9.38241,-8.50356 22.71826,-10.04504 34.94173,-10.11023 z m -266.24278,3.03328 c 12.61686,0.61541 27.24523,2.99285 35.76229,13.21099 2.56608,3.2828 0.77252,8.45455 -3.85805,7.93757 -28.48581,3.15625 -59.673,3.38781 -84.05261,20.83357 -14.45546,9.12572 -25.69926,22.41333 -39.75906,31.97033 -4.48604,2.15705 -2.34694,-5.04689 -0.97779,-6.64774 11.24112,-20.16602 26.84788,-38.04003 44.49624,-52.95044 14.27642,-9.2336 31.47907,-14.36144 48.38898,-14.35428 z m 279.20065,87.41236 c 19.49164,-0.89475 38.6343,7.19716 51.98547,21.34262 17.37726,16.3568 27.74741,39.02689 32.04666,62.16446 0.47863,17.63568 1.3544,35.45442 -0.61281,53.01145 -6.88186,29.53895 -23.76052,59.04555 -51.99601,72.53497 -18.02674,8.06761 -39.20793,11.00226 -57.84857,3.14081 -25.96484,-9.83475 -47.82412,-31.05752 -56.81054,-57.45503 -13.69745,-37.69288 -9.02685,-81.96809 12.83131,-115.77286 13.861,-20.23883 35.33435,-36.70639 60.54318,-38.47283 3.27612,-0.33172 6.56858,-0.49185 9.86131,-0.49359 z m -289.20539,0.58641 c 14.59644,-0.93732 29.33627,1.99597 41.60735,10.29162 32.91886,21.07372 50.03192,61.4862 48.07402,99.90405 1.02012,26.09499 -8.39528,52.19507 -23.98993,72.95505 -17.70231,23.52693 -47.59376,36.16562 -76.7508,33.95709 -28.76357,-3.55502 -55.00021,-23.34142 -66.16264,-50.22699 -4.54256,-10.50779 -9.81573,-21.35257 -11.05442,-32.71998 1.51985,-24.57404 -2.52826,-50.58735 8.65185,-73.36664 10.71063,-27.1954 31.93677,-52.54114 61.26881,-59.68678 5.94067,-1.3258 12.08303,-0.97941 18.35576,-1.10742 z m 146.93671,172.85034 c 12.21472,-0.39065 25.22802,0.0853 35.32354,7.95867 4.17507,3.32554 10.84122,5.48357 12.48537,10.94342 -1.83806,2.52131 -6.76214,-0.83333 -9.44332,-0.44985 -24.99244,-5.55941 -51.07547,-5.31116 -76.05162,0.15453 -1.69312,0.16609 -9.25269,1.57474 -6.56858,-2.30976 8.14046,-8.15069 19.33365,-13.16199 30.44878,-15.58404 4.53596,-0.65787 9.18977,-0.6734 13.80583,-0.71297 z m -2.24648,41.71072 c 24.14002,-0.48394 49.61065,6.31116 67.64193,22.88389 8.54962,7.31202 11.37126,18.76052 10.11584,29.56986 -2.62483,18.45511 -19.14915,31.29715 -35.16749,38.60291 -9.00125,4.88838 -19.2449,7.17855 -28.4364,10.95467 -1.86469,11.8072 -1.73584,23.79894 -2.17265,35.71165 6.92116,3.44812 15.69166,4.30339 22.78966,8.30461 28.82487,13.56184 51.00816,40.19584 58.79064,71.04902 7.35629,27.3133 11.14631,56.7544 3.24597,84.3146 -5.30371,18.1647 -23.49101,30.2556 -42.07638,30.3469 -39.90724,0.9838 -80.12041,1.2286 -119.98521,0.042 -16.56359,-1.1994 -30.02953,-15.4069 -33.00255,-31.4372 -5.09697,-24.7802 -3.71091,-50.9569 1.65375,-75.6737 9.12703,-42.06695 43.5934,-76.80162 85.59197,-86.20583 4.65686,-1.44913 1.7239,-8.36532 2.98265,-11.97701 -0.0383,-7.89509 1.67339,-16.28873 0.43875,-23.87809 -16.33823,-5.57511 -33.87172,-9.22653 -47.86164,-19.82388 -11.22732,-8.08571 -22.9781,-20.34548 -21.28356,-35.41635 -1.87437,-17.19795 11.90849,-31.26679 26.59752,-37.51144 15.59798,-7.62138 33.03171,-9.8064 50.1372,-9.85661 z"
       id="path4" />
    <path
       style="fill:#f481aa;fill-opacity:1;stroke-width:1.08"
       d="m 535.72134,602.17077 c -20.22308,-0.0109 -39.12786,11.17245 -50.51604,27.59471 -14.03968,18.58434 -21.35207,41.94548 -20.05088,65.23662 -0.84369,22.60869 5.25054,45.95341 18.98013,64.12279 11.85629,14.94203 30.05251,25.80854 49.6082,24.72184 29.86543,0.56246 55.4776,-21.74951 66.82489,-48.11899 10.17673,-20.68635 9.98765,-44.65476 6.53062,-66.93458 -6.72102,-27.03092 -24.15763,-53.95659 -51.35054,-63.66294 -6.44104,-2.12734 -13.2487,-3.09483 -20.02638,-2.95945 z m 12.46428,59.16787 c 10.48734,-1.63628 16.26523,9.54607 18.81348,17.77779 5.05495,17.00463 2.95016,36.97675 -7.48194,51.57624 -6.82687,7.99221 -21.8641,5.77002 -26.24902,-3.87281 -8.17954,-15.30141 -7.69162,-34.11973 -3.04171,-50.44773 2.49066,-7.92482 8.54724,-16.48665 17.95919,-15.03349 z"
       id="path5" />
    <path
       id="path8"
       style="fill:#a8523c;fill-opacity:1;stroke-width:1.08"
       d="m 685.4707,1049.5195 c -1.9783,-0.019 -3.95606,-0.01 -5.93164,0.062 -2.3865,-0.025 -4.77369,-0.01 -7.16015,0.014 -18.46171,-0.4932 -37.49423,2.4624 -53.19532,12.7754 -9.49674,5.1763 -16.48925,14.585 -16.73242,25.6484 -3.00821,13.8497 8.55227,28.1313 22.69336,28.2774 20.07481,1.2855 40.20094,1.3791 60.32617,1.1015 z" />
    <path
       id="path38"
       style="fill:#000000"
       d="m 535.82422,583.29883 c -1.79128,0.0163 -3.58247,0.0916 -5.3711,0.22461 -4.76967,0.35475 -9.51709,1.12682 -14.18359,2.32031 -24.5622,6.28195 -43.62189,23.48058 -56.91601,51.36133 -10.45444,21.92529 -12.44146,31.61432 -12.43946,60.66601 l 0.002,24.66797 5.01367,14.66602 c 9.78539,28.62088 24.31234,46.46953 46.62695,57.28711 7.71596,3.74051 15.47897,6.42745 20.93164,7.24609 18.07258,2.71336 35.34067,-0.14296 52.20703,-8.63672 51.78462,-26.07832 70.70982,-102.29403 40.03711,-161.23047 -8.32378,-15.99383 -25.76479,-33.88592 -39.44531,-40.46484 -11.39892,-5.48171 -23.92392,-8.22134 -36.46289,-8.10742 z m -0.13672,20.14453 c 9.44571,-0.03 19.61415,2.02454 27.12891,5.70117 17.31298,8.47045 33.60824,29.19281 40.71679,51.77735 11.84875,37.64452 1.87205,78.93499 -25.08593,103.82031 -9.04132,8.34619 -18.23579,13.33983 -30.23829,16.42187 -24.24097,6.22466 -49.90675,-3.66154 -64.86523,-24.98633 -11.55834,-16.47754 -17.18945,-36.22504 -17.18945,-60.29101 0,-25.18452 4.63185,-42.21963 16.44726,-60.48438 11.53001,-17.82358 26.08427,-28.14695 44.00586,-31.21679 2.86273,-0.49037 5.93151,-0.7322 9.08008,-0.74219 z m 12.4668,55.76172 c -11.76263,0 -19.43506,9.86151 -22.16602,28.49023 -3.03804,20.72344 2.65378,41.03418 13.26758,47.34766 5.80551,3.45333 13.43563,3.10086 18.7832,-0.86914 9.14347,-6.78806 15.16886,-29.58074 12.45508,-47.11328 -2.75136,-17.77529 -10.8355,-27.85547 -22.33984,-27.85547 z" />
    <path
       id="path33"
       style="fill:#000000"
       d="m 541.54297,496.38672 c -13.96566,0.52007 -28.37745,4.57081 -40.54492,11.78516 -14.74424,8.74216 -40.22533,38.23064 -48.93946,56.63671 -1.91713,4.04939 -2.03067,5.30398 -0.63281,6.98829 1.47821,1.78114 3.48262,0.36294 15.125,-10.70704 30.83882,-29.32262 50.1266,-37.84919 92.27149,-40.78711 11.73333,-0.81792 22.08333,-2.07287 23,-2.78906 5.65431,-4.41773 -2.96329,-14.0825 -16.20313,-18.17187 -7.4775,-2.30957 -15.69677,-3.26712 -24.07617,-2.95508 z" />
    <path
       id="path31"
       style="fill:#000000"
       d="m 682.36133,798.91211 c -10.90693,-0.11531 -22.19396,0.57811 -30.20703,2.23242 -12.45509,2.57137 -28.18714,9.58832 -36.17383,16.13281 -3.36421,2.75671 -7.27157,7.9055 -9.72461,12.81446 -14.34821,28.7133 10.69932,58.78453 57.62695,69.18554 4.25014,0.942 8.05341,2.23923 8.45117,2.88282 0.39776,0.64359 0.29493,8.88529 -0.22656,18.31445 l -0.94726,17.14453 -5.50196,0.82617 c -3.02641,0.45484 -10.0818,2.81815 -15.67773,5.25196 -29.42254,12.79658 -51.67398,36.31497 -62.54688,66.10743 -10.61908,29.097 -12.37011,73.9101 -3.78515,96.8555 5.21307,13.9332 17.30932,23.3512 33.0957,25.7695 3.7337,0.572 35.93626,0.5278 67.64063,0.2461 l -0.14844,-24.6055 c -1.75024,0.01 -1.53645,0.035 -3.41406,0.043 -30.54014,0.1366 -55.83444,-0.3022 -58.22266,-1.0098 -2.32253,-0.6881 -5.83642,-3.1663 -7.80664,-5.5078 -3.23048,-3.8392 -3.52868,-5.0799 -3.04688,-12.6465 0.47106,-7.3978 1.07928,-8.9581 5.13868,-13.1875 5.80211,-6.0451 17.30891,-11.9414 28.9375,-14.8281 7.68391,-1.9077 23.59788,-2.5139 38.11523,-2.1016 z" />
    <path
       id="path29"
       style="fill:#000000"
       d="m 682.10742,756.83008 c -5.39429,0.0746 -10.54942,0.3348 -13.38672,0.92383 -13.60638,2.82467 -31.89843,13.36669 -31.89843,18.38281 0,2.28848 1.24134,2.18648 20.66601,-1.69531 7.42099,-1.483 16.00685,-2.14774 24.71289,-2.22071 z" />
    <path
       id="path27"
       style="fill:#000000"
       d="m 679.96484,403.45703 c -29.0493,-0.14112 -58.11286,2.99476 -91.81054,9.75195 -9.53333,1.91166 -18.30464,3.75807 -19.49219,4.10352 -1.71595,0.49917 -3.59661,-3.27901 -9.16211,-18.40625 -17.29737,-47.01487 -45.71727,-108.02347 -73.36133,-157.48242 -32.71258,-58.52719 -44.39245,-75.32335 -58.10351,-83.55274 -7.43722,-4.46383 -8.32777,-4.66601 -20.49414,-4.66601 -11.59828,0 -13.34616,0.34747 -19.8379,3.94336 -14.43916,7.9981 -25.08348,23.2888 -46.55468,66.875 -30.33544,61.58047 -50.18013,121.96362 -58.22852,177.18164 -9.21068,63.19225 2.63123,123.07537 33.07227,167.24414 3.75635,5.45032 12.68009,15.84243 19.83008,23.09375 7.15,7.25132 13,13.76754 13,14.48047 0,3.19783 -11.50197,36.2426 -16.03321,46.06445 -9.37718,20.32589 -24.32078,40.91741 -41.45117,57.11719 -18.27019,17.27767 -33.45722,27.31348 -60.71484,40.12109 -8.35453,3.92556 -15.54741,8.07026 -15.98438,9.20899 -1.85284,4.82841 13.97245,22.39963 32.88477,36.51367 5.51961,4.11921 15.95369,11.05662 23.18554,15.41601 l 13.14844,7.92578 -9.18554,4.1504 c -5.05147,2.28212 -14.08376,6.11224 -20.07227,8.51171 -5.9885,2.39946 -11.92042,5.50286 -13.18164,6.89649 -2.19106,2.4211 -2.04641,2.85905 3.22265,9.83789 6.05143,8.01505 25.7663,26.08452 41.70704,38.22656 13.31968,10.14559 36.36757,25.0712 79.80664,51.68164 43.33878,26.54901 55.18444,35.19146 74.1289,54.08594 23.75177,23.68905 33.23293,40.09635 51.67188,89.42385 12.08492,32.3293 17.97506,46.1795 25.23437,59.332 27.51119,49.8451 70.77425,76.877 134.29883,83.916 6.23334,0.6903 19.73333,0.9951 30,0.6758 1.18303,-0.037 2.28092,-0.2067 3.45508,-0.2578 l -0.17774,-29.4414 c -13.67886,0.7821 -27.55671,1.0642 -32.61132,0.2851 -43.75543,-6.7438 -71.33247,-19.0468 -92.75782,-41.3808 -18.42177,-19.203 -27.9746,-37.7921 -50.5996,-98.4629 -13.93954,-37.38 -28.59913,-61.55154 -50.53907,-83.33204 -22.98916,-22.8221 -38.32817,-33.58696 -106.95508,-75.05468 -18.80247,-11.36137 -39.50246,-24.31223 -46,-28.78126 -15.4633,-10.63573 -28.24056,-22.16738 -26.48046,-23.89843 0.73333,-0.72123 10.82064,-5.36068 22.41796,-10.31055 22.65611,-9.6699 27.14263,-12.36753 25.91211,-15.57422 -0.42917,-1.11841 -8.47889,-6.0773 -17.88867,-11.02148 -20.75197,-10.9037 -38.59616,-23.19748 -48.4414,-33.37305 -5.99272,-6.19379 -6.96837,-7.81083 -5.33399,-8.8418 1.1,-0.69389 6.98734,-4.20349 13.08399,-7.79882 40.9117,-24.12657 71.77568,-56.73799 90.23242,-95.34571 3.15518,-6.6 8.76362,-20.50042 12.46484,-30.88867 13.7619,-38.62569 26.63243,-65.46823 44.00781,-91.7793 17.04639,-25.81288 31.6888,-41.19511 54.21094,-56.95703 l 6.66602,-4.66601 -0.32813,-12.52149 c -0.67234,-25.55995 -9.72278,-84.12298 -19.10156,-123.59961 -10.65373,-44.84309 -30.12494,-89.84313 -41.39649,-95.67187 -4.07662,-2.1081 -4.40938,-2.09783 -6.07617,0.18164 -2.82965,3.86977 -2.20768,7.16265 6.33203,33.55273 8.48881,26.23275 17.68449,62.43889 22.44141,88.34961 3.87511,21.10756 8.17905,52.39517 7.32422,53.25 -0.38763,0.38763 -2.86917,-1.98572 -5.51367,-5.27344 -12.45997,-15.49052 -31.42521,-30.0126 -37.96289,-29.07031 -4.27065,0.61553 -6.97582,6.18683 -5.86914,12.08594 0.49929,2.66145 8.00699,18.94467 16.68359,36.18359 11.9153,23.67367 15.31202,31.52067 13.88477,32.06836 -1.03932,0.39882 -5.90845,0.14402 -10.82032,-0.5664 -14.01817,-2.02751 -26.37951,-1.70642 -28.83593,0.75 -3.24809,3.24809 -2.56756,6.76293 4.39257,22.72461 l 6.46094,14.81836 -11.85547,21.83984 c -18.40616,33.90996 -25.45598,45.31491 -27.74023,44.875 -2.77459,-0.53434 -19.03825,-20.98861 -25.67578,-32.29102 -32.05189,-54.57816 -33.79938,-117.57203 -5.79493,-208.96484 11.07288,-36.13644 21.95014,-63.60047 38.7168,-97.76367 19.96836,-40.6869 30.05254,-54 40.9082,-54 2.97801,0 7.21659,1.05064 9.41797,2.33398 6.9496,4.05138 23.30753,30.57342 51.31641,83.20508 24.31769,45.69553 47.24315,100.57961 67.69531,162.06055 4.19587,12.61313 8.32756,23.51382 9.18164,24.22265 1.0234,0.84934 6.14032,0.20626 15.00782,-1.88476 31.76006,-7.48922 73.03844,-13.12651 107.875,-14.73242 4.14801,-0.19122 8.66939,-0.24042 13.33007,-0.22461 z" />
  </g>
</svg>
